<svg width="24" height="24" viewBox="0 0 24 24" fill="none" xmlns="http://www.w3.org/2000/svg">
<rect width="24" height="24" rx="2" fill="#EBEEF0"/>
<path d="M17.9946 5H10.2152C9.66074 5 9.20972 5.45106 9.20972 6.00547V8.36536C9.42342 8.36536 13.6175 8.36536 13.7849 8.36536C14.8455 8.36536 15.7083 9.22816 15.7083 10.2887C15.7083 10.4872 15.7083 14.74 15.7083 14.7904H17.9946C18.549 14.7904 19 14.3393 19 13.7849V6.00547C19 5.45106 18.549 5 17.9946 5Z" fill="#808080"/>
<path d="M13.7849 9.2832H6.0055C5.45109 9.2832 5 9.73426 5 10.2887V18.0681C5.00003 18.6225 5.45106 19.0736 6.0055 19.0736H13.7849C14.3393 19.0736 14.7904 18.6225 14.7904 18.0681V10.2887C14.7904 9.73426 14.3393 9.2832 13.7849 9.2832Z" fill="#808080"/>
</svg>
