<svg width="20" height="20" viewBox="0 0 20 20" fill="none" xmlns="http://www.w3.org/2000/svg">
<path d="M2.7045 2.01123C2.44031 2.0758 2.19961 2.27541 2.07339 2.52786L2 2.67463V4.47991V6.2852L2.07045 6.44077C2.15558 6.62864 2.39922 6.86054 2.59295 6.93393C2.72505 6.98676 2.88356 6.9897 5.35812 6.9985C7.61252 7.00438 8.00587 6.9985 8.15264 6.96328C8.46086 6.88402 8.64873 6.72258 8.79256 6.41729L8.86888 6.25584V4.50927C8.86888 2.89185 8.86595 2.75095 8.81605 2.60712C8.74266 2.40164 8.51957 2.16093 8.31996 2.06993L8.16438 1.99948L5.47847 1.99361C4.00196 1.99361 2.7544 1.99948 2.7045 2.01123ZM8.04403 2.64234C8.24657 2.72747 8.23777 2.63647 8.23777 4.5034V6.18833L8.15264 6.27346L8.06751 6.35858H5.44325C3.06556 6.35858 2.81311 6.35271 2.75147 6.31162C2.6047 6.20594 2.60176 6.18539 2.60176 4.47698C2.60176 3.0944 2.60763 2.87717 2.64873 2.79205C2.74266 2.59244 2.60763 2.60124 5.41389 2.60124C7.51272 2.60124 7.96184 2.60712 8.04403 2.64234Z" fill="#202223"/>
<path d="M10.8062 2.02606C10.7416 2.04661 10.6477 2.08477 10.5978 2.11119C10.4951 2.16402 10.2867 2.38124 10.225 2.5016C10.1164 2.71001 10.1135 2.85678 10.1223 6.47616L10.1311 10.0133L10.2074 10.1748C10.316 10.4096 10.4452 10.5417 10.6683 10.6503L10.8649 10.7472H13.5508C16.0812 10.7472 16.2456 10.7443 16.3923 10.6944C16.5978 10.621 16.8385 10.3979 16.9295 10.1983L17 10.0427V6.35874V2.67479L16.9002 2.48985C16.7886 2.28438 16.6976 2.19631 16.4745 2.0789L16.3248 1.99964L13.6242 1.99377C11.499 1.9879 10.8972 1.99671 10.8062 2.02606ZM16.2074 2.64837C16.4099 2.7423 16.3982 2.51334 16.3982 6.3558C16.3982 10.0926 16.4041 9.9605 16.2485 10.0691C16.1868 10.1102 15.9344 10.1161 13.5567 10.1161H10.9324L10.8473 10.0309L10.7622 9.94582V6.38222C10.7622 3.13858 10.7651 2.81275 10.8092 2.75111C10.9148 2.6014 10.8561 2.60434 13.5743 2.6014C15.8258 2.6014 16.1223 2.60727 16.2074 2.64837Z" fill="#202223"/>
<path d="M2.70157 8.27886C2.41977 8.34638 2.15851 8.57534 2.05577 8.84247C2.00294 8.98043 2 9.1184 2 12.6556V16.3249L2.0998 16.5098C2.21135 16.7153 2.30235 16.8033 2.52544 16.9207L2.67515 17H5.41976H8.16438L8.31996 16.9295C8.51957 16.8386 8.74266 16.5978 8.81605 16.3924C8.86595 16.2456 8.86888 16.0519 8.86888 12.6115V8.9863L8.79256 8.82485C8.64873 8.5225 8.46086 8.36106 8.15851 8.2818C8.01468 8.24364 7.60665 8.23777 5.41976 8.2407C3.48826 8.2407 2.81311 8.25245 2.70157 8.27886ZM8.15264 8.96869L8.23777 9.05382V12.6174C8.23777 15.864 8.23483 16.1869 8.1908 16.2485C8.08219 16.4012 8.13796 16.3982 5.41683 16.3982C3.1771 16.3982 2.87769 16.3924 2.79256 16.3513C2.59002 16.2573 2.60176 16.4863 2.60176 12.6438C2.60176 8.90705 2.59589 9.03914 2.75147 8.93053C2.81311 8.88943 3.06556 8.88356 5.44325 8.88356H8.06751L8.15264 8.96869Z" fill="#202223"/>
<path d="M10.8472 12.0362C10.5477 12.1155 10.3452 12.2916 10.2072 12.5822L10.1309 12.7436L10.1221 14.4022C10.1133 16.1663 10.1221 16.3102 10.2483 16.5333C10.3452 16.7006 10.5507 16.8796 10.7209 16.9442C10.8589 16.9971 10.9792 17 13.5947 17H16.3246L16.4744 16.9207C16.6974 16.8033 16.7884 16.7153 16.9 16.5098L16.9998 16.3249V14.5196V12.7143L16.9293 12.5587C16.8442 12.3708 16.6006 12.1389 16.4068 12.0656C16.2747 12.0127 16.1192 12.0098 13.6241 12.0039C11.5927 12.001 10.9499 12.0068 10.8472 12.0362ZM16.2483 12.6879C16.3951 12.7935 16.398 12.8141 16.398 14.5225C16.398 15.908 16.3922 16.1223 16.3511 16.2074C16.2571 16.407 16.3863 16.3982 13.583 16.3982C10.8618 16.3982 10.9176 16.4012 10.809 16.2485C10.7679 16.1869 10.762 16.0049 10.762 14.4961V12.8112L10.8472 12.726L10.9323 12.6409H13.5565C15.9342 12.6409 16.1867 12.6468 16.2483 12.6879Z" fill="#202223"/>
</svg>
