<svg width="24" height="24" viewBox="0 0 24 24" fill="none" xmlns="http://www.w3.org/2000/svg">
<rect width="24" height="24" rx="2" fill="#FFF4F4"/>
<path fill-rule="evenodd" clip-rule="evenodd" d="M10.199 3.03245C9.77235 3.11622 9.34085 3.45096 9.15925 3.83904C9.03634 4.1017 8.99295 4.32712 8.99295 4.70307V4.99793L7.36468 5.00748C5.77956 5.01677 5.7323 5.01894 5.58113 5.08882C5.38216 5.1808 5.16472 5.3985 5.07407 5.59657C4.97531 5.81227 4.97531 6.19243 5.07407 6.40813C5.16472 6.6062 5.38216 6.8239 5.58113 6.91589L5.73641 6.98766H12.5H19.2636L19.4189 6.91589C19.6178 6.8239 19.8353 6.6062 19.9259 6.40813C20.0247 6.19243 20.0247 5.81227 19.9259 5.59657C19.8353 5.3985 19.6178 5.1808 19.4189 5.08882C19.2677 5.01894 19.2204 5.01677 17.6353 5.00748L16.007 4.99793V4.70307C16.007 4.54091 15.9917 4.32735 15.9729 4.22849C15.8592 3.62861 15.3747 3.14417 14.7749 3.03041C14.5545 2.98863 10.4128 2.99046 10.199 3.03245ZM14.7387 4.06556C14.9381 4.1673 15.005 4.32635 15.005 4.6984V5.00034H12.5H9.99496V4.6984C9.99496 4.33229 10.0622 4.16857 10.2542 4.0672C10.3746 4.00363 10.4543 4.00123 12.493 3.99979C14.5472 3.99836 14.6106 4.00023 14.7387 4.06556ZM6.03855 8.14833C6.04786 8.22642 6.24292 10.5749 6.47205 13.3672C6.70114 16.1594 6.90469 18.5718 6.92436 18.7279C7.00726 19.3854 7.4569 19.9035 8.07016 20.0481C8.37604 20.1202 16.624 20.1202 16.9298 20.0481C17.5431 19.9035 17.9927 19.3854 18.0756 18.7279C18.0953 18.5718 18.2989 16.1594 18.528 13.3672C18.7571 10.5749 18.9521 8.22642 18.9615 8.14833L18.9784 8.00638H12.5H6.02158L6.03855 8.14833ZM9.78618 9.10262C9.84136 9.14193 9.90956 9.22322 9.93772 9.28328C9.97773 9.36865 10.045 10.2968 10.2458 13.5326L10.5027 17.6727L10.4335 17.815C10.3084 18.0725 10.002 18.163 9.7474 18.0176C9.49466 17.8733 9.52586 18.1482 9.24269 13.5687L8.98667 9.42814L9.05551 9.28642C9.18454 9.02082 9.54426 8.93034 9.78618 9.10262ZM12.7347 9.07563C12.8195 9.11891 12.8905 9.18986 12.9338 9.27473C13.0001 9.40472 13.001 9.46321 13.001 13.5509C13.001 17.6385 13.0001 17.697 12.9338 17.827C12.8582 17.9752 12.6657 18.0933 12.5 18.0933C12.3343 18.0933 12.1418 17.9752 12.0662 17.827C11.9999 17.697 11.999 17.6385 11.999 13.5509C11.999 9.46488 11.9999 9.40469 12.0662 9.27486C12.1896 9.03291 12.4808 8.94613 12.7347 9.07563ZM15.7422 9.0764C15.8339 9.12319 15.897 9.18862 15.9444 9.28625L16.0133 9.42814L15.7573 13.5687C15.4741 18.1482 15.5053 17.8733 15.2526 18.0176C14.998 18.163 14.6916 18.0725 14.5664 17.815L14.4972 17.6726L14.7509 13.5492C14.988 9.6933 15.0091 9.41681 15.0753 9.28555C15.1245 9.18822 15.1885 9.12429 15.2844 9.07683C15.4587 8.99056 15.5737 8.99042 15.7422 9.0764Z" fill="#D72C0D"/>
</svg>
