<svg width="25" height="24" viewBox="0 0 25 24" fill="none" xmlns="http://www.w3.org/2000/svg">
<rect x="0.5" width="24" height="24" rx="2" fill="#EBEEF0"/>
<path d="M7.66991 14.1727L10.2696 16.7724C10.3865 16.8893 10.5617 16.8893 10.6786 16.7724L17.1633 10.2585C17.2801 10.1417 17.2801 9.9664 17.1633 9.84956L14.5928 7.27904C14.4759 7.1622 14.3007 7.1622 14.1838 7.27904L7.66991 13.793C7.55306 13.9098 7.55306 14.0851 7.66991 14.1727Z" fill="#CFCFCF"/>
<path d="M15.4397 6.08079C15.3228 6.19763 15.3228 6.37289 15.4397 6.48973L18.0102 9.06025C18.127 9.17709 18.3023 9.17709 18.4191 9.06025L19.1494 8.32999C19.6168 7.89183 19.6168 7.19078 19.1494 6.72342L17.7765 5.35053C17.3092 4.88316 16.5789 4.88316 16.1115 5.35053L15.4397 6.08079Z" fill="#CFCFCF"/>
<path d="M5.5082 18.4958C5.44978 18.7879 5.71267 19.0508 6.00478 18.9924L9.18872 18.2329C9.30556 18.2037 9.39319 18.1453 9.45161 18.0869L9.51003 18.0285C9.56845 17.97 9.59766 17.7656 9.48082 17.6487L6.85188 15.0198C6.73504 14.9029 6.53057 14.9322 6.47215 14.9906C6.41372 15.049 6.41372 15.049 6.41372 15.049C6.32609 15.1366 6.29688 15.2243 6.26767 15.3119L5.5082 18.4958Z" fill="#CFCFCF"/>
</svg>
