<svg width="24" height="24" viewBox="0 0 24 24" fill="none" xmlns="http://www.w3.org/2000/svg">
<rect width="24" height="24" rx="2" fill="#EDEDF6"/>
<path d="M7.16991 14.1725L9.76964 16.7722C9.88648 16.889 10.0617 16.889 10.1786 16.7722L16.6633 10.2583C16.7801 10.1414 16.7801 9.96615 16.6633 9.84931L14.0928 7.27879C13.9759 7.16195 13.8007 7.16195 13.6838 7.27879L7.16991 13.7927C7.05306 13.9096 7.05306 14.0848 7.16991 14.1725Z" fill="#5556A6"/>
<path d="M14.9397 6.08079C14.8228 6.19763 14.8228 6.37289 14.9397 6.48973L17.5102 9.06025C17.627 9.17709 17.8023 9.17709 17.9191 9.06025L18.6494 8.32999C19.1168 7.89183 19.1168 7.19078 18.6494 6.72342L17.2765 5.35053C16.8092 4.88316 16.0789 4.88316 15.6115 5.35053L14.9397 6.08079Z" fill="#5556A6"/>
<path d="M5.0082 18.4949C4.94978 18.787 5.21267 19.0499 5.50478 18.9915L8.68872 18.232C8.80556 18.2028 8.89319 18.1444 8.95161 18.086L9.01003 18.0275C9.06845 17.9691 9.09766 17.7646 8.98082 17.6478L6.35188 15.0189C6.23504 14.902 6.03057 14.9312 5.97215 14.9897C5.91372 15.0481 5.91372 15.0481 5.91372 15.0481C5.82609 15.1357 5.79688 15.2233 5.76767 15.311L5.0082 18.4949Z" fill="#5556A6"/>
</svg>
