<svg width="24" height="24" viewBox="0 0 24 24" fill="none" xmlns="http://www.w3.org/2000/svg">
<g clip-path="url(#clip0_1090_14074)">
<path fill-rule="evenodd" clip-rule="evenodd" d="M11.4747 4.07057C11.3742 4.11259 11.2402 4.18296 11.177 4.22691C11.1139 4.27087 9.5303 5.84048 7.65793 7.71495C4.91057 10.4654 4.23788 11.1547 4.17202 11.287C3.87033 11.8933 3.97047 12.5585 4.43311 13.0211C4.72035 13.3084 5.08712 13.4573 5.50746 13.4573H5.7202V15.9622C5.7202 17.6581 5.73129 18.5208 5.75457 18.6332C5.87285 19.2045 6.33502 19.7206 6.90485 19.9174C7.1127 19.9893 7.12724 19.9899 8.63954 19.9899C10.131 19.9899 10.1665 19.9885 10.2512 19.9253C10.2988 19.8897 10.3668 19.8217 10.4023 19.7742C10.4657 19.6894 10.4672 19.6473 10.4826 17.5961L10.4983 15.5045L10.5934 15.3503C10.7119 15.1582 10.954 15.0046 11.1831 14.9761C11.2717 14.9651 11.7108 14.9608 12.1588 14.9665L12.9734 14.9768L13.1381 15.068C13.295 15.155 13.3963 15.2585 13.4934 15.4311C13.5295 15.4954 13.5402 15.8835 13.5531 17.5986C13.5684 19.6473 13.57 19.6894 13.6333 19.7742C13.6689 19.8217 13.7369 19.8897 13.7845 19.9253C13.8691 19.9885 13.9047 19.9899 15.3961 19.9899C16.9084 19.9899 16.923 19.9893 17.1308 19.9174C17.7006 19.7206 18.1628 19.2045 18.2811 18.6332C18.3044 18.5208 18.3155 17.6581 18.3155 15.9622V13.4573H18.5282C19.1174 13.4573 19.6309 13.1431 19.8842 12.6276C19.9906 12.4113 19.9917 12.4046 19.9917 11.9847C19.9917 11.2701 20.3519 11.6944 16.33 7.67247C12.331 3.67341 12.7316 4.01696 12.0501 4.00249C11.694 3.99491 11.6405 4.00123 11.4747 4.07057ZM12.2507 4.96574C12.4332 5.0545 18.9843 11.612 19.0506 11.7722C19.116 11.9305 19.1111 12.0647 19.0339 12.2243C18.9175 12.4646 18.821 12.4992 18.2158 12.5173C17.647 12.5344 17.6066 12.5466 17.4558 12.7487C17.3919 12.8342 17.391 12.8679 17.3755 15.6762L17.3598 18.5173L17.273 18.665C17.2252 18.7463 17.1396 18.8483 17.0828 18.8916C16.8647 19.0579 16.7997 19.0656 15.6013 19.0656H14.493V17.3126C14.493 16.1624 14.4812 15.5024 14.4586 15.3935C14.337 14.8057 13.8619 14.2974 13.2554 14.1061C13.048 14.0406 12.981 14.0369 12.0178 14.0369C10.8964 14.0369 10.8404 14.0443 10.4372 14.2474C10.0421 14.4464 9.6706 14.9414 9.57701 15.3935C9.55445 15.5024 9.54264 16.1624 9.54264 17.3126V19.0656H8.43432C7.23593 19.0656 7.17094 19.0579 6.95281 18.8916C6.89601 18.8483 6.81044 18.7463 6.76266 18.665L6.67581 18.5173L6.66015 15.6762C6.64467 12.868 6.64373 12.8342 6.57988 12.7487C6.42901 12.5466 6.38866 12.5344 5.81984 12.5173C5.21464 12.4992 5.11817 12.4646 5.0018 12.2243C4.92457 12.0647 4.91962 11.9305 4.9851 11.7722C5.04993 11.6155 11.601 5.05623 11.7828 4.96599C11.9418 4.88713 12.089 4.88707 12.2507 4.96574Z" fill="#808080"/>
</g>
<defs>
<clipPath id="clip0_1090_14074">
<rect width="24" height="24" fill="white"/>
</clipPath>
</defs>
</svg>
