<svg width="20" height="20" viewBox="0 0 20 20" fill="none" xmlns="http://www.w3.org/2000/svg">
<path d="M6.63425 2.06046C6.51339 2.09956 6.40674 2.17066 6.27166 2.30218C5.95885 2.61855 5.97307 2.44082 5.97307 5.74316V8.61538H4.65071C3.33546 8.61538 3.32479 8.61538 3.14706 8.7007C3.05108 8.74335 2.90178 8.85355 2.82002 8.94597C2.54986 9.23746 2.56053 9.1166 2.56053 12.3372V15.1916H2.15529C1.93489 15.1916 1.70028 15.2094 1.63274 15.2343C1.39813 15.3125 1.21328 15.476 1.09598 15.7142C1 15.9097 0.989336 15.963 1.00711 16.1443C1.03555 16.4856 1.20973 16.7486 1.51188 16.9121L1.65407 16.9868L9.98991 16.9974C15.9939 17.0045 18.3755 16.9974 18.5106 16.969C18.6386 16.9406 18.7417 16.8872 18.859 16.7842C19.0971 16.5744 19.1753 16.4002 19.1753 16.0981C19.1753 15.8208 19.1042 15.636 18.9158 15.4511C18.7203 15.2521 18.5817 15.2094 18.1054 15.1987L17.6717 15.1845L17.661 12.2661C17.6504 9.0064 17.6681 9.23391 17.3944 8.93531C17.3198 8.84999 17.1811 8.74335 17.0816 8.7007C16.9039 8.61538 16.9039 8.61538 15.3504 8.61538H13.7935V7.55252C13.7935 6.53231 13.7899 6.48965 13.7188 6.39723C13.6371 6.29059 13.4629 6.27282 13.3456 6.35457C13.2816 6.40434 13.278 6.46833 13.2603 7.50275L13.2425 8.59761L11.8917 8.61538C11.1488 8.62605 10.5089 8.64737 10.4698 8.66515C10.4307 8.68292 10.3312 8.74335 10.253 8.79667L10.1037 8.89976L10.0148 8.82867C9.96503 8.78956 9.85483 8.72558 9.76952 8.68648C9.62378 8.62249 9.5278 8.61538 8.06325 8.61538H6.50628V5.76093C6.50628 3.11977 6.50983 2.89938 6.57026 2.78562C6.6769 2.56523 6.79066 2.53679 7.53004 2.53679H8.177V3.08422C8.177 3.67075 8.19833 3.77739 8.34763 3.93736C8.52892 4.12931 8.57158 4.13642 9.84061 4.13642C10.9781 4.13642 11.0101 4.13287 11.163 4.05466C11.2696 4.0049 11.3514 3.92669 11.4011 3.83427C11.4758 3.70275 11.4829 3.64587 11.4829 3.11266V2.53679H12.1867C12.9759 2.53679 13.0719 2.56168 13.1963 2.78918C13.2532 2.89938 13.2603 3.01668 13.2603 4.15775L13.293 6.48236L13.2713 6.92681L13.2822 6.70458C13.2767 6.8157 13.2112 6.93162 13.3214 6.82143L13.7842 6.65041L13.7853 5.35254L13.7864 4.05466L13.7757 2.7323L13.6797 2.55101C13.5553 2.3164 13.3314 2.12445 13.1039 2.05691C12.8373 1.9787 6.89374 1.98226 6.63425 2.06046ZM10.9426 3.05934L10.9319 3.58544H9.82995H8.72798L8.71732 3.05934L8.70666 2.53679H9.82995H10.9532L10.9426 3.05934ZM4.76446 9.68891C4.76446 10.3323 4.80712 10.4674 5.05239 10.6309L5.20169 10.7304L6.3321 10.7411C7.54426 10.7518 7.67223 10.7411 7.85707 10.5847C8.05258 10.4176 8.07036 10.3465 8.07036 9.71735V9.14504L8.83107 9.1557C9.53135 9.16637 9.59889 9.17348 9.66999 9.23746C9.85128 9.39742 9.84772 9.33699 9.84772 12.3656V15.1916H8.33696H6.82171L6.73733 15.2805C6.63069 15.3836 6.62358 15.508 6.71601 15.6218L6.78355 15.7071L12.6169 15.7248L18.4502 15.7426L18.5461 15.8421C18.6883 15.9808 18.6883 16.2154 18.5461 16.354L18.4502 16.4536H10.0966H1.74294L1.64696 16.354C1.50477 16.2154 1.50477 15.9808 1.64696 15.8421L1.74294 15.7426L3.76913 15.7248C5.6247 15.7071 6.71601 15.7639 6.78355 15.7071C6.88308 15.6218 6.9248 15.2876 6.82171 15.1916C6.74706 15.1241 5.74201 15.1916 4.43742 15.1916H3.09374V12.3656C3.09374 9.24812 3.08663 9.35832 3.31413 9.21969C3.42077 9.1557 3.49187 9.14859 4.09972 9.14859H4.76446V9.68891ZM7.53715 9.66403V10.1795L6.42807 10.1724L5.31544 10.1617L5.30478 9.65336L5.29411 9.14859H6.41741H7.53715V9.66403ZM12.0517 9.69957C12.0517 10.1724 12.0623 10.2719 12.1192 10.3856C12.2934 10.7269 12.3716 10.7447 13.6868 10.7482C14.3267 10.7482 14.8243 10.734 14.9025 10.7127C15.0732 10.6629 15.2474 10.5172 15.3078 10.3679C15.3433 10.2861 15.3576 10.087 15.3576 9.69957V9.14859H16.0827C16.7759 9.14859 16.8079 9.15215 16.9252 9.23035C16.9927 9.27656 17.0638 9.36543 17.0887 9.43297C17.1207 9.52539 17.1314 10.2897 17.1314 12.3727L17.1349 15.1916H13.7579H10.3809V12.3336V9.47918L10.4627 9.35832C10.5942 9.16281 10.6511 9.14859 11.3869 9.14859H12.0517V9.69957ZM14.8243 9.66403V10.1795H13.7046H12.5849V9.66403V9.14859H13.7046H14.8243V9.66403Z" fill="#202223"/>
</svg>
