<svg width="20" height="20" viewBox="0 0 20 20" fill="none" xmlns="http://www.w3.org/2000/svg">
<path d="M8.21188 3.02228C7.96369 3.08343 7.827 3.19493 7.70471 3.42154C7.63996 3.54024 7.63636 3.66253 7.63636 5.5833V7.61917L7.74427 7.79183C7.81981 7.91772 7.90614 7.99325 8.03203 8.058C8.20468 8.14792 8.23346 8.15152 9.02838 8.16231L9.84848 8.1767V8.89249V9.60828H6.68677C4.52861 9.60828 3.49269 9.61907 3.41715 9.64785C3.20133 9.72338 3.19414 9.75576 3.19414 10.8456V11.8312L2.37763 11.8456C1.48559 11.86 1.39926 11.878 1.20143 12.0758C0.996407 12.2808 1 12.2376 1 14.439V16.4677L1.08273 16.6259C1.14028 16.7302 1.22661 16.8202 1.34171 16.8921L1.51437 17H3.55024H5.58611L5.73718 16.9209C5.91703 16.8237 6.05011 16.6583 6.10407 16.4605C6.15442 16.2698 6.15802 12.5937 6.10766 12.4103C6.05011 12.2089 5.92422 12.047 5.74797 11.9463C5.5897 11.86 5.56093 11.8564 4.7696 11.8456L3.9495 11.8312V11.0974V10.3636H6.89899H9.84848V11.0974V11.8312L9.02838 11.8456C8.23346 11.8564 8.20468 11.86 8.03203 11.9499C7.90614 12.0146 7.81981 12.0902 7.74427 12.2161L7.63636 12.3887V14.4246C7.63636 16.4389 7.63636 16.4605 7.7119 16.6043C7.80182 16.7698 7.87376 16.8381 8.05001 16.9317C8.16871 16.9964 8.29101 17 10.2082 17C12.1253 17 12.2476 16.9964 12.3663 16.9317C12.5426 16.8381 12.6145 16.7698 12.7045 16.6043C12.78 16.4605 12.78 16.4389 12.78 14.4246V12.3887L12.6721 12.2161C12.5965 12.0902 12.5102 12.0146 12.3843 11.9499C12.2117 11.86 12.1829 11.8564 11.388 11.8456L10.5679 11.8312V11.0974V10.3636H13.5174H16.4669V11.0974V11.8312L15.6504 11.8456C14.8554 11.8564 14.8267 11.86 14.6684 11.9463C14.4921 12.047 14.3662 12.2089 14.3087 12.4103C14.2583 12.5937 14.2619 16.2698 14.3123 16.4605C14.3662 16.6583 14.4993 16.8237 14.6792 16.9209L14.8303 17H16.8661H18.902L19.0746 16.8921C19.1897 16.8202 19.2761 16.7302 19.3336 16.6259L19.4164 16.4677V14.439C19.4164 12.6405 19.4092 12.3959 19.3588 12.2952C19.2761 12.1297 19.1682 12.0218 19.0027 11.9355C18.8696 11.8636 18.7905 11.8564 18.0423 11.8456L17.2222 11.8312V10.8456C17.2222 9.75576 17.215 9.72338 16.9992 9.64785C16.9237 9.61907 15.8878 9.60828 13.7296 9.60828H10.5679V8.87451V8.14073L11.388 8.12634C12.1829 8.11555 12.2117 8.11195 12.3843 8.02203C12.5102 7.95728 12.5965 7.88175 12.6721 7.75586L12.78 7.5832V5.56532C12.78 3.66253 12.7764 3.54024 12.7117 3.42154C12.6181 3.24529 12.5498 3.17335 12.3843 3.08343C12.244 3.00789 12.2081 3.00789 10.2801 3.0007C9.20104 2.9971 8.27302 3.00789 8.21188 3.02228ZM12.0426 5.5833V7.42134L11.37 7.39976C10.9959 7.38897 10.1722 7.36739 9.53555 7.3566L8.37374 7.33501V5.54014V3.74527H10.2082H12.0426V5.5833ZM4.5322 12.6297H5.38827V14.4462V16.2626H3.55383H1.71939V14.421V12.583L2.69776 12.6045C3.23371 12.6189 4.061 12.6297 4.5322 12.6297ZM11.1865 12.6297H12.0426V14.4462V16.2626H10.2082H8.37374V14.421V12.583L9.35211 12.6045C9.88805 12.6189 10.7153 12.6297 11.1865 12.6297ZM18.697 14.3922V16.1907H18.1862C17.902 16.1907 17.0783 16.2015 16.3518 16.2159L15.0281 16.2374V14.4174V12.5937H16.8625H18.697V14.3922Z" fill="#202223"/>
</svg>
