<svg width="117" height="40" viewBox="0 0 117 40" fill="none" xmlns="http://www.w3.org/2000/svg">
<g filter="url(#filter0_ddi_13295_43790)">
<rect x="4" width="33" height="33" rx="16.5" fill="white"/>
</g>
<g filter="url(#filter1_ii_13295_43790)">
<path d="M11.6172 8.96094C11.6172 8.68479 11.841 8.46094 12.1172 8.46094H16.4996C16.7025 8.46094 16.8852 8.58347 16.9622 8.77112L20.3897 17.1237C20.4104 17.1743 20.4598 17.2074 20.5145 17.2074V17.2074C20.5692 17.2074 20.6185 17.1743 20.6393 17.1237L24.0668 8.77112C24.1438 8.58347 24.3265 8.46094 24.5293 8.46094H28.9118C29.1879 8.46094 29.4118 8.6848 29.4118 8.96094V23.4029C29.4118 23.6791 29.1879 23.9029 28.9118 23.9029H25.81C25.5339 23.9029 25.31 23.6791 25.31 23.4029V15.0472C25.31 15.0076 25.2779 14.9755 25.2383 14.9755V14.9755C25.2088 14.9755 25.1823 14.9936 25.1715 15.0211L21.8753 23.4641C21.8004 23.656 21.6155 23.7823 21.4095 23.7823H19.6203C19.4139 23.7823 19.2288 23.6555 19.1541 23.4631L15.8574 14.9609C15.8467 14.9334 15.8202 14.9152 15.7906 14.9152V14.9152C15.7511 14.9152 15.719 14.9473 15.719 14.9868V23.4029C15.719 23.6791 15.4951 23.9029 15.219 23.9029H12.1172C11.841 23.9029 11.6172 23.6791 11.6172 23.4029V8.96094Z" fill="#5556A6"/>
</g>
<path d="M42.1562 10.1758C42.1562 9.89964 42.3801 9.67578 42.6562 9.67578H45.295C45.4979 9.67578 45.6807 9.7984 45.7576 9.98615L49.2701 18.5557C49.288 18.5994 49.3306 18.6279 49.3778 18.6279C49.425 18.6279 49.4676 18.5994 49.4855 18.5557L52.998 9.98615C53.0749 9.7984 53.2577 9.67578 53.4606 9.67578H56.0993C56.3755 9.67578 56.5993 9.89964 56.5993 10.1758V22.4999C56.5993 22.776 56.3755 22.9999 56.0993 22.9999H54.3669C54.0907 22.9999 53.8669 22.776 53.8669 22.4999V14.3935C53.8669 14.357 53.8373 14.3275 53.8009 14.3275C53.7739 14.3275 53.7497 14.3439 53.7397 14.3689L50.434 22.6207C50.358 22.8104 50.1742 22.9348 49.9698 22.9348H48.7863C48.5817 22.9348 48.3977 22.8102 48.3219 22.6201L45.0159 14.3365C45.0059 14.3114 44.9816 14.295 44.9547 14.295C44.9182 14.295 44.8887 14.3245 44.8887 14.3609V22.4999C44.8887 22.776 44.6649 22.9999 44.3887 22.9999H42.6563C42.3801 22.9999 42.1562 22.776 42.1562 22.4999V10.1758Z" fill="white"/>
<path d="M63.4224 23.195C62.3945 23.195 61.5097 22.9868 60.768 22.5705C60.0307 22.1498 59.4625 21.5556 59.0635 20.7879C58.6644 20.0158 58.4649 19.1028 58.4649 18.0489C58.4649 17.0209 58.6644 16.1188 59.0635 15.3424C59.4625 14.566 60.0242 13.961 60.7485 13.5273C61.4771 13.0935 62.3316 12.8767 63.3118 12.8767C63.9711 12.8767 64.5848 12.9829 65.153 13.1955C65.7255 13.4037 66.2243 13.7181 66.6493 14.1388C67.0787 14.5595 67.4127 15.0887 67.6512 15.7263C67.8898 16.3595 68.0091 17.1012 68.0091 17.9513V18.2125C68.0091 18.4886 67.7852 18.7125 67.5091 18.7125H60.0709C59.7948 18.7125 59.5709 18.4886 59.5709 18.2125V17.4949C59.5709 17.2188 59.7948 16.9949 60.0709 16.9949H64.9002C65.1763 16.9949 65.4076 16.7685 65.3506 16.4983C65.3079 16.2959 65.2377 16.1079 65.14 15.9345C64.9665 15.6265 64.7258 15.3858 64.4178 15.2123C64.1142 15.0345 63.7607 14.9456 63.3573 14.9456C62.9366 14.9456 62.5636 15.0431 62.2383 15.2383C61.9174 15.4292 61.6658 15.6872 61.4836 16.0125C61.3015 16.3335 61.2082 16.6913 61.2039 17.086V18.719C61.2039 19.2134 61.295 19.6406 61.4771 20.0006C61.6636 20.3606 61.9261 20.6382 62.2644 20.8334C62.6027 21.0286 63.0039 21.1262 63.4679 21.1262C63.7759 21.1262 64.0578 21.0828 64.3137 20.996C64.5696 20.9093 64.7886 20.7792 64.9708 20.6057C65.0668 20.5142 65.1508 20.412 65.2227 20.2988C65.3406 20.1133 65.537 19.978 65.7564 19.9925L67.375 20.0993C67.6787 20.1193 67.897 20.4058 67.789 20.6904C67.6409 21.0808 67.4279 21.4343 67.1503 21.7507C66.7513 22.2061 66.2351 22.5618 65.6019 22.8177C64.973 23.0693 64.2465 23.195 63.4224 23.195Z" fill="white"/>
<path d="M73.5 23.1625C72.741 23.1625 72.0536 22.9673 71.4377 22.577C70.8261 22.1823 70.3403 21.6033 69.9804 20.8399C69.6247 20.0722 69.4469 19.131 69.4469 18.0163C69.4469 16.8713 69.6312 15.9193 69.9999 15.1603C70.3685 14.3969 70.8586 13.8265 71.4702 13.4492C72.0861 13.0675 72.7605 12.8767 73.4935 12.8767C74.053 12.8767 74.5193 12.9721 74.8923 13.1629C75.2696 13.3494 75.5733 13.5837 75.8031 13.8656C76.0286 14.1328 76.2018 14.396 76.3228 14.6552C76.3313 14.6735 76.3496 14.6853 76.3698 14.6853C76.3982 14.6853 76.4212 14.6623 76.4212 14.6339V10.1758C76.4212 9.89964 76.6451 9.67578 76.9212 9.67578H78.6862C78.9623 9.67578 79.1862 9.89964 79.1862 10.1758V22.4999C79.1862 22.776 78.9623 22.9999 78.6862 22.9999H76.9537C76.6776 22.9999 76.4537 22.776 76.4537 22.4999V21.471C76.4537 21.4315 76.4217 21.3994 76.3821 21.3994C76.3544 21.3994 76.3292 21.4155 76.317 21.4404C76.1882 21.7041 76.0104 21.9659 75.7836 22.2257C75.5494 22.4946 75.2436 22.7179 74.8663 22.8958C74.4933 23.0736 74.0379 23.1625 73.5 23.1625ZM74.3783 20.957C74.8251 20.957 75.2024 20.8356 75.5104 20.5927C75.8226 20.3455 76.0612 20.0006 76.226 19.5582C76.3952 19.1158 76.4797 18.5975 76.4797 18.0033C76.4797 17.4091 76.3973 16.893 76.2325 16.4549C76.0677 16.0169 75.8292 15.6786 75.5169 15.44C75.2046 15.2015 74.8251 15.0822 74.3783 15.0822C73.9229 15.0822 73.5391 15.2058 73.2268 15.453C72.9145 15.7002 72.6781 16.0429 72.5177 16.481C72.3572 16.919 72.2769 17.4265 72.2769 18.0033C72.2769 18.5845 72.3572 19.0985 72.5177 19.5452C72.6825 19.9876 72.9188 20.3346 73.2268 20.5862C73.5391 20.8334 73.9229 20.957 74.3783 20.957Z" fill="white"/>
<path d="M84.8408 19.2158C84.5292 19.5431 83.9777 19.322 83.9786 18.8701L83.9821 17.075C83.9824 16.9229 84.1058 16.7997 84.2579 16.7997C84.3392 16.7997 84.4163 16.7639 84.4687 16.7018L87.4371 13.1843C87.5321 13.0718 87.6719 13.0068 87.8192 13.0068H89.682C90.109 13.0068 90.3395 13.5076 90.0618 13.832L86.6261 17.8446C86.5265 17.9609 86.378 18.0237 86.2252 18.0141C86.0813 18.005 85.9408 18.0601 85.8414 18.1645L84.8408 19.2158ZM81.9649 22.9999C81.6887 22.9999 81.4649 22.776 81.4649 22.4999V10.1758C81.4649 9.89964 81.6887 9.67578 81.9649 9.67578H83.7364C84.0125 9.67578 84.2364 9.89964 84.2364 10.1758V22.4999C84.2364 22.776 84.0125 22.9999 83.7364 22.9999H81.9649ZM87.9762 22.9999C87.8101 22.9999 87.6548 22.9174 87.5619 22.7798L84.9941 18.9792C84.863 18.7853 84.8841 18.5264 85.0447 18.3562L86.1927 17.1395C86.4113 16.9078 86.7879 16.9368 86.9684 17.1993L90.4184 22.2166C90.6465 22.5483 90.409 22.9999 90.0064 22.9999H87.9762Z" fill="white"/>
<path d="M94.9776 23.1885C94.3401 23.1885 93.7719 23.0779 93.2731 22.8567C92.7743 22.6312 92.3796 22.2994 92.089 21.8613C91.8028 21.4189 91.6596 20.8681 91.6596 20.2088C91.6596 19.6537 91.7616 19.1874 91.9654 18.8101C92.1693 18.4327 92.4468 18.1291 92.7982 17.8992C93.1495 17.6694 93.5485 17.4959 93.9953 17.3788C94.4463 17.2617 94.9191 17.1793 95.4135 17.1315C95.9947 17.0708 96.4632 17.0144 96.8188 16.9624C97.1745 16.906 97.4325 16.8236 97.593 16.7152C97.7535 16.6067 97.8337 16.4463 97.8337 16.2337V16.1947C97.8337 15.7827 97.7036 15.4639 97.4434 15.2383C97.1875 15.0128 96.8231 14.9 96.3504 14.9C95.8516 14.9 95.4547 15.0106 95.1598 15.2318C94.9842 15.3609 94.844 15.5101 94.7391 15.6792C94.6138 15.8812 94.404 16.0377 94.1671 16.0185L92.5787 15.8895C92.2778 15.865 92.064 15.5796 92.1703 15.297C92.3137 14.9154 92.5165 14.5728 92.7786 14.2689C93.1603 13.8222 93.6526 13.4796 94.2555 13.241C94.8627 12.9981 95.5653 12.8767 96.3634 12.8767C96.9186 12.8767 97.4499 12.9417 97.9573 13.0719C98.4691 13.202 98.9224 13.4037 99.3171 13.6769C99.7161 13.9502 100.031 14.3015 100.26 14.7309C100.49 15.1559 100.605 15.6655 100.605 16.2598V22.4999C100.605 22.776 100.381 22.9999 100.105 22.9999H98.4769C98.2007 22.9999 97.9769 22.776 97.9769 22.4999V21.6626C97.9769 21.6358 97.9552 21.6141 97.9284 21.6141C97.9102 21.6141 97.8936 21.6243 97.8851 21.6404C97.7262 21.9418 97.5161 22.2085 97.2547 22.4404C96.9858 22.6746 96.6627 22.8589 96.2853 22.9934C95.908 23.1235 95.4721 23.1885 94.9776 23.1885ZM95.7714 21.2758C96.1791 21.2758 96.5391 21.1956 96.8513 21.0351C97.1636 20.8703 97.4087 20.6491 97.5865 20.3715C97.7643 20.0939 97.8532 19.7794 97.8532 19.4281V18.7592C97.8532 18.5906 97.6563 18.4733 97.4954 18.5238C97.348 18.5672 97.181 18.6084 96.9945 18.6474C96.808 18.6821 96.6215 18.7146 96.435 18.745C96.2485 18.771 96.0793 18.7949 95.9275 18.8166C95.6022 18.8643 95.3181 18.9402 95.0752 19.0443C94.8323 19.1484 94.6437 19.2893 94.5092 19.4672C94.3748 19.6406 94.3075 19.8575 94.3075 20.1177C94.3075 20.4951 94.4442 20.7835 94.7174 20.983C94.995 21.1782 95.3463 21.2758 95.7714 21.2758Z" fill="white"/>
<path d="M103.255 22.9999C102.979 22.9999 102.755 22.776 102.755 22.4999V13.5068C102.755 13.2307 102.979 13.0068 103.255 13.0068H104.942C105.219 13.0068 105.442 13.2307 105.442 13.5068V14.6908C105.442 14.7237 105.469 14.7504 105.502 14.7504C105.528 14.7504 105.552 14.7329 105.559 14.7076C105.743 14.1086 106.044 13.6544 106.464 13.3451C106.893 13.0242 107.388 12.8637 107.947 12.8637C108.086 12.8637 108.236 12.8723 108.396 12.8897C108.409 12.8911 108.422 12.8925 108.435 12.894C108.663 12.9207 108.819 13.1222 108.819 13.3516V14.87C108.819 15.1444 108.551 15.3523 108.279 15.3164C108.049 15.286 107.839 15.2709 107.648 15.2709C107.24 15.2709 106.876 15.3598 106.555 15.5376C106.238 15.7111 105.987 15.954 105.8 16.2663C105.618 16.5785 105.527 16.9385 105.527 17.3462V22.4999C105.527 22.776 105.303 22.9999 105.027 22.9999H103.255Z" fill="white"/>
<path d="M115.568 13.0068C115.844 13.0068 116.068 13.2307 116.068 13.5068V14.5887C116.068 14.8648 115.844 15.0887 115.568 15.0887H110.55C110.274 15.0887 110.05 14.8648 110.05 14.5887V13.5068C110.05 13.2307 110.274 13.0068 110.55 13.0068H115.568ZM111.416 11.1126C111.416 10.8365 111.64 10.6126 111.916 10.6126H113.688C113.964 10.6126 114.188 10.8365 114.188 11.1126V19.9291C114.188 20.185 114.227 20.3845 114.305 20.5276C114.383 20.6664 114.492 20.764 114.63 20.8204C114.773 20.8768 114.938 20.905 115.125 20.905C115.255 20.905 115.385 20.8941 115.515 20.8724C115.681 20.8392 115.842 20.9464 115.877 21.1122L116.156 22.4313C116.21 22.6835 116.062 22.9334 115.811 22.9924C115.764 23.0033 115.716 23.0145 115.665 23.0259C115.413 23.0866 115.107 23.1235 114.747 23.1365C114.079 23.1625 113.494 23.0736 112.991 22.8697C112.492 22.6659 112.104 22.3493 111.826 21.9199C111.549 21.4905 111.412 20.9483 111.416 20.2934V11.1126Z" fill="white"/>
<defs>
<filter id="filter0_ddi_13295_43790" x="0.615385" y="0" width="39.7692" height="39.7692" filterUnits="userSpaceOnUse" color-interpolation-filters="sRGB">
<feFlood flood-opacity="0" result="BackgroundImageFix"/>
<feColorMatrix in="SourceAlpha" type="matrix" values="0 0 0 0 0 0 0 0 0 0 0 0 0 0 0 0 0 0 127 0" result="hardAlpha"/>
<feOffset dy="3.38462"/>
<feGaussianBlur stdDeviation="1.69231"/>
<feComposite in2="hardAlpha" operator="out"/>
<feColorMatrix type="matrix" values="0 0 0 0 0 0 0 0 0 0 0 0 0 0 0 0 0 0 0.08 0"/>
<feBlend mode="normal" in2="BackgroundImageFix" result="effect1_dropShadow_13295_43790"/>
<feColorMatrix in="SourceAlpha" type="matrix" values="0 0 0 0 0 0 0 0 0 0 0 0 0 0 0 0 0 0 127 0" result="hardAlpha"/>
<feOffset dy="3.38462"/>
<feGaussianBlur stdDeviation="1.69231"/>
<feComposite in2="hardAlpha" operator="out"/>
<feColorMatrix type="matrix" values="0 0 0 0 0 0 0 0 0 0 0 0 0 0 0 0 0 0 0.1 0"/>
<feBlend mode="normal" in2="effect1_dropShadow_13295_43790" result="effect2_dropShadow_13295_43790"/>
<feBlend mode="normal" in="SourceGraphic" in2="effect2_dropShadow_13295_43790" result="shape"/>
<feColorMatrix in="SourceAlpha" type="matrix" values="0 0 0 0 0 0 0 0 0 0 0 0 0 0 0 0 0 0 127 0" result="hardAlpha"/>
<feOffset dx="3.38462" dy="3.38462"/>
<feGaussianBlur stdDeviation="3.38462"/>
<feComposite in2="hardAlpha" operator="arithmetic" k2="-1" k3="1"/>
<feColorMatrix type="matrix" values="0 0 0 0 1 0 0 0 0 0.470833 0 0 0 0 0.60632 0 0 0 0.1 0"/>
<feBlend mode="normal" in2="shape" result="effect3_innerShadow_13295_43790"/>
</filter>
<filter id="filter1_ii_13295_43790" x="10.771" y="8.46094" width="19.4867" height="16.2876" filterUnits="userSpaceOnUse" color-interpolation-filters="sRGB">
<feFlood flood-opacity="0" result="BackgroundImageFix"/>
<feBlend mode="normal" in="SourceGraphic" in2="BackgroundImageFix" result="shape"/>
<feColorMatrix in="SourceAlpha" type="matrix" values="0 0 0 0 0 0 0 0 0 0 0 0 0 0 0 0 0 0 127 0" result="hardAlpha"/>
<feOffset dx="1.69231" dy="0.846154"/>
<feGaussianBlur stdDeviation="0.423077"/>
<feComposite in2="hardAlpha" operator="arithmetic" k2="-1" k3="1"/>
<feColorMatrix type="matrix" values="0 0 0 0 1 0 0 0 0 1 0 0 0 0 1 0 0 0 0.1 0"/>
<feBlend mode="normal" in2="shape" result="effect1_innerShadow_13295_43790"/>
<feColorMatrix in="SourceAlpha" type="matrix" values="0 0 0 0 0 0 0 0 0 0 0 0 0 0 0 0 0 0 127 0" result="hardAlpha"/>
<feOffset dx="-0.846154" dy="0.846154"/>
<feGaussianBlur stdDeviation="0.423077"/>
<feComposite in2="hardAlpha" operator="arithmetic" k2="-1" k3="1"/>
<feColorMatrix type="matrix" values="0 0 0 0 0 0 0 0 0 0 0 0 0 0 0 0 0 0 0.15 0"/>
<feBlend mode="normal" in2="effect1_innerShadow_13295_43790" result="effect2_innerShadow_13295_43790"/>
</filter>
</defs>
</svg>
