<svg width="56" height="56" viewBox="0 0 56 56" fill="none" xmlns="http://www.w3.org/2000/svg">
<rect x="4" y="4" width="48" height="48" rx="24" fill="#DDDDFF"/>
<path fill-rule="evenodd" clip-rule="evenodd" d="M35.7857 37.4288H21.2143V19.2143H30.9286V24.0715H35.7857V37.4288ZM32.1429 19.4657L35.5344 22.8572H32.1429V19.4657V19.4657ZM36.4669 22.0728L32.9273 18.5331C32.5824 18.1894 32.1246 18 31.6389 18H20V38.6431H37V23.3611C37 22.8754 36.8106 22.4176 36.4669 22.0728L36.4669 22.0728ZM23.6429 31.3573H32.1429V30.143H23.6429V31.3573ZM23.6429 26.5001H33.3572V25.2858H23.6429V26.5001ZM23.6429 33.7859H28.5V32.5716H23.6429V33.7859ZM23.6429 28.9287H30.9286V27.7144H23.6429V28.9287ZM23.6429 24.0715H28.5V22.8572H23.6429V24.0715Z" fill="#5556A6"/>
<rect x="4" y="4" width="48" height="48" rx="24" stroke="#F9F5FF" stroke-width="8"/>
</svg>
