<svg width="24" height="24" viewBox="0 0 24 24" fill="none" xmlns="http://www.w3.org/2000/svg">
<path d="M20 18H4L6 16V10C6.00144 8.58312 6.50425 7.21247 7.41939 6.13077C8.33453 5.04908 9.60294 4.32615 11 4.09V3C11 2.73478 11.1054 2.48043 11.2929 2.29289C11.4804 2.10536 11.7348 2 12 2C12.2652 2 12.5196 2.10536 12.7071 2.29289C12.8946 2.48043 13 2.73478 13 3V4.09C13.4473 4.17277 13.8835 4.307 14.3 4.49C14.0504 5.09697 13.9544 5.75611 14.0203 6.40906C14.0862 7.06201 14.3121 7.68863 14.678 8.23346C15.0438 8.77829 15.5384 9.22452 16.1178 9.53265C16.6973 9.84078 17.3437 10.0013 18 10V16L20 18ZM12 22C12.5304 22 13.0391 21.7893 13.4142 21.4142C13.7893 21.0391 14 20.5304 14 20H10C10 20.5304 10.2107 21.0391 10.5858 21.4142C10.9609 21.7893 11.4696 22 12 22ZM18 4C17.6044 4 17.2178 4.1173 16.8889 4.33706C16.56 4.55682 16.3036 4.86918 16.1522 5.23463C16.0009 5.60009 15.9613 6.00222 16.0384 6.39018C16.1156 6.77814 16.3061 7.13451 16.5858 7.41421C16.8655 7.69392 17.2219 7.8844 17.6098 7.96157C17.9978 8.03874 18.3999 7.99914 18.7654 7.84776C19.1308 7.69638 19.4432 7.44004 19.6629 7.11114C19.8827 6.78224 20 6.39556 20 6C20 5.46957 19.7893 4.96086 19.4142 4.58579C19.0391 4.21071 18.5304 4 18 4Z" fill="white"/>
</svg>
