<svg width="20" height="20" viewBox="0 0 20 20" fill="none" xmlns="http://www.w3.org/2000/svg">
<path d="M12.8012 6H7.1988C7.08836 6 7 6.0884 7 6.1989C7 6.30939 7.08836 6.39779 7.1988 6.39779H12.8012C12.9116 6.39779 13 6.30939 13 6.1989C13 6.0884 12.9116 6 12.8012 6ZM12.8012 7.20166H7.1988C7.08836 7.20166 7 7.29006 7 7.40055C7 7.51105 7.08836 7.59945 7.1988 7.59945H12.8012C12.9116 7.59945 13 7.51105 13 7.40055C13 7.29006 12.9116 7.20166 12.8012 7.20166ZM12.8012 8.40332H7.1988C7.08836 8.40332 7 8.49171 7 8.60221C7 8.71271 7.08836 8.80111 7.1988 8.80111H12.8012C12.9116 8.80111 13 8.71271 13 8.60221C13 8.49171 12.9116 8.40332 12.8012 8.40332ZM12.8012 9.60221H7.1988C7.08836 9.60221 7 9.69061 7 9.80111C7 9.9116 7.08836 10 7.1988 10H12.8012C12.9116 10 13 9.9116 13 9.80111C13 9.69337 12.9116 9.60221 12.8012 9.60221ZM12.8012 10.8039H7.1988C7.08836 10.8039 7 10.8923 7 11.0028C7 11.1133 7.08836 11.2017 7.1988 11.2017H12.8012C12.9116 11.2017 13 11.1133 13 11.0028C13 10.895 12.9116 10.8039 12.8012 10.8039ZM12.8012 12.0055H7.1988C7.08836 12.0055 7 12.0939 7 12.2044C7 12.3149 7.08836 12.4033 7.1988 12.4033H12.8012C12.9116 12.4033 13 12.3149 13 12.2044C13 12.0939 12.9116 12.0055 12.8012 12.0055Z" fill="#211F1E"/>
<path d="M17.0828 13.5597H15.5176V4.31962C15.5176 3.591 14.9266 3 14.198 3H4.28061C3.56817 3.01889 3.00146 3.61259 3.00146 4.32772V5.7445C3.00146 5.84704 3.04194 5.94689 3.11481 6.02245C3.18767 6.09532 3.28752 6.1358 3.39007 6.1358H4.95526V15.3705C4.95526 16.0991 5.54626 16.6901 6.27488 16.6901C6.29108 16.6901 6.30727 16.6874 6.32346 16.6847C6.33965 16.6874 6.35584 16.6901 6.37203 16.6901H16.1518C16.8804 16.6901 17.4714 16.0991 17.4714 15.3705V13.9537C17.4741 13.7351 17.3014 13.5597 17.0828 13.5597ZM3.78676 5.3532V4.32772C3.78676 3.73942 4.40474 3.7826 4.40474 3.7826H4.42363C4.72048 3.7826 4.96066 4.02278 4.96066 4.31962V5.3532H3.78676ZM6.91446 13.951V15.3678C6.91446 15.6646 6.67428 15.9048 6.37743 15.9048C6.36124 15.9048 6.34505 15.9075 6.32886 15.9102C6.31266 15.9075 6.29647 15.9048 6.28028 15.9048C5.98343 15.9048 5.74326 15.6646 5.74326 15.3678V4.31962C5.74326 4.12802 5.70278 3.94722 5.62992 3.7826H14.2007C14.4976 3.7826 14.7377 4.02278 14.7377 4.31962V13.5624H7.30575C7.08987 13.5597 6.91446 13.7351 6.91446 13.951ZM16.6915 15.3705C16.6915 15.6673 16.4514 15.9075 16.1545 15.9075H7.58101C7.65388 15.7429 7.69436 15.5621 7.69436 15.3705V14.345H16.6915V15.3705Z" fill="#211F1E"/>
</svg>
