<svg width="24" height="24" viewBox="0 0 24 24" fill="none" xmlns="http://www.w3.org/2000/svg">
<path d="M18.4921 5.50808C16.4816 3.49758 13.2105 3.49761 11.2 5.50811C9.82667 6.8814 9.34967 8.90518 9.94429 10.7413L4.13734 16.5483C4.09379 16.5918 4.05925 16.6434 4.03568 16.7003C4.01211 16.7572 3.99999 16.8181 4 16.8797V19.5315C4 19.7906 4.20966 20.0003 4.46875 20.0003H7.12057C7.24507 20.0003 7.3641 19.9508 7.45198 19.8629L8.11482 19.1996C8.16478 19.1496 8.2028 19.089 8.22602 19.0223C8.24925 18.9555 8.25709 18.8844 8.24895 18.8142L8.16654 18.1019L9.15348 18.009C9.26212 17.9988 9.36381 17.9511 9.44096 17.8739C9.51812 17.7967 9.56589 17.6951 9.57601 17.5864L9.66895 16.5995L10.3812 16.6823C10.5135 16.7002 10.6467 16.6558 10.747 16.567C10.7963 16.5229 10.8358 16.469 10.8629 16.4086C10.8899 16.3483 10.9039 16.2829 10.904 16.2168V15.344H11.7609C11.8854 15.344 12.0045 15.2946 12.0923 15.2067L13.2944 14.0205C15.1301 14.6156 17.1188 14.1745 18.4921 12.8003C20.5026 10.7898 20.5026 7.51859 18.4921 5.50808ZM17.166 8.82278C16.6176 9.37118 15.7259 9.37118 15.1775 8.82278C14.6291 8.27437 14.6291 7.38265 15.1775 6.83424C15.7259 6.28584 16.6176 6.28584 17.166 6.83424C17.7144 7.38265 17.7144 8.27437 17.166 8.82278Z" fill="#5556A6"/>
</svg>
