<svg width="20" height="20" viewBox="0 0 20 20" fill="none" xmlns="http://www.w3.org/2000/svg">
<path d="M9.63399 2.01011C8.93569 2.12161 8.32835 2.42968 7.87358 2.90499C7.41294 3.3891 7.14888 3.93189 7.06672 4.57444C7.04619 4.72701 7.02565 4.87078 7.01978 4.88838C7.01098 4.91772 6.79973 4.92653 6.08383 4.92653C5.06866 4.92653 5.04812 4.92946 4.92489 5.10257C4.86621 5.18472 4.83394 5.50159 4.42318 10.1139C4.12977 13.4058 3.98894 15.09 4.00068 15.2044C4.05349 15.712 4.3733 16.243 4.81633 16.557C5.05986 16.7271 5.25057 16.821 5.56157 16.9178L5.81977 17H10.0007H14.1817L14.4399 16.9178C14.7509 16.821 14.9416 16.7271 15.1851 16.557C15.634 16.2372 15.9568 15.7002 16.0008 15.1868C16.0125 15.0665 15.8688 13.3442 15.5812 10.1197C15.2321 6.21456 15.1323 5.21406 15.0942 5.13778C15.0678 5.08496 15.0032 5.01455 14.9504 4.98521C14.8624 4.92946 14.7979 4.92653 13.9235 4.92653C13.2047 4.92653 12.9905 4.91772 12.9817 4.88838C12.9758 4.87078 12.9553 4.72701 12.9348 4.57444C12.8966 4.28398 12.7793 3.87615 12.6678 3.65903C12.2687 2.87271 11.5382 2.28591 10.6902 2.0776C10.4584 2.01892 9.82763 1.98077 9.63399 2.01011ZM10.4672 2.87565C11.1567 3.03115 11.7817 3.58275 12.0105 4.2429C12.0898 4.46589 12.1572 4.85024 12.1279 4.89719C12.1162 4.91772 11.4061 4.92653 10.0007 4.92653C8.59535 4.92653 7.88531 4.91772 7.87358 4.89719C7.84424 4.85024 7.91172 4.46589 7.99094 4.2429C8.08483 3.97297 8.21686 3.75879 8.43984 3.51526C8.79192 3.13678 9.22322 2.91379 9.78069 2.83164C9.90392 2.81403 10.3088 2.84044 10.4672 2.87565ZM7.04325 6.46395L7.05205 7.17985L7.1254 7.25907C7.33665 7.48792 7.64472 7.46152 7.80023 7.20626C7.85304 7.12117 7.85891 7.05369 7.85891 6.42874V5.74805H10.0007H12.1426V6.42874C12.1426 7.05956 12.1484 7.12117 12.2013 7.20919C12.3685 7.48499 12.7382 7.48499 12.9054 7.20919C12.9582 7.12117 12.9641 7.05956 12.9641 6.42874V5.74805H13.6624H14.3578L14.7714 10.3926C15.0502 13.5261 15.1763 15.0782 15.1617 15.1692C15.0913 15.6151 14.6834 16.0024 14.1377 16.1374C14.0057 16.1726 13.2663 16.1785 10.0007 16.1785C6.73518 16.1785 5.99581 16.1726 5.86378 16.1374C5.31805 16.0024 4.91022 15.6151 4.83981 15.1692C4.82514 15.0753 4.94836 13.5731 5.22416 10.4865C5.44421 7.98377 5.62612 5.89475 5.62906 5.84194V5.74805H6.33322H7.03445L7.04325 6.46395Z" fill="#202223"/>
</svg>
