<svg width="24" height="24" viewBox="0 0 24 24" fill="none" xmlns="http://www.w3.org/2000/svg">
<rect width="24" height="24" rx="2" fill="#EDEDF6"/>
<path d="M12.0002 5C11.7377 5 11.5249 5.2128 11.5249 5.47535V14.6285L9.89981 13.0035C9.71464 12.8183 9.4134 12.8183 9.22823 13.0035C9.04306 13.1887 9.04306 13.4899 9.22823 13.6751L11.6631 16.1098C11.7543 16.201 11.8759 16.248 11.9975 16.248C12.1191 16.248 12.2407 16.201 12.3319 16.1098L14.7667 13.6751C14.9519 13.4899 14.9519 13.1887 14.7667 13.0035C14.5815 12.8183 14.2803 12.8183 14.0951 13.0035L12.4701 14.6285V5.47258C12.4728 5.21004 12.2628 5 12.0002 5Z" fill="#5556A6"/>
<path d="M18 18.0686V15.3132C18 15.0507 17.7872 14.8379 17.5246 14.8379C17.2621 14.8379 17.0493 15.0507 17.0493 15.3132V17.596H6.94795V15.3132C6.94795 15.0507 6.73515 14.8379 6.47536 14.8379C6.21557 14.8379 6 15.0507 6 15.3132V18.0686C6 18.3311 6.21281 18.5412 6.47536 18.5412H17.5246C17.7872 18.5412 18 18.3311 18 18.0686Z" fill="#5556A6"/>
</svg>
