<svg width="20" height="20" viewBox="0 0 20 20" fill="none" xmlns="http://www.w3.org/2000/svg">
<path d="M4.22812 2.06154C4.16085 2.09663 4.09359 2.1639 4.05849 2.23409C4 2.34815 4 2.39494 4 8.60972C4 14.8274 4 14.8713 4.05849 14.9854C4.09651 15.0614 4.15793 15.1228 4.23397 15.1608C4.33925 15.2135 4.4036 15.2193 5.05286 15.2193L6.24411 15.2657V16.0967C6.24411 16.746 6.19147 16.706 6.24411 16.8113C6.28213 16.8874 6.42241 16.9361 6.49845 16.9741C6.61251 17.0326 6.15251 16.9741 10.5804 16.9741C15.0082 16.9741 15.0579 16.9741 15.172 16.9156C15.248 16.8776 15.3094 16.8162 15.3475 16.7401C15.406 16.6261 15.406 16.5822 15.406 10.3791C15.406 4.17603 15.406 4.13216 15.3475 4.0181C15.3094 3.94206 15.248 3.88064 15.172 3.84262C15.0667 3.78998 15.0024 3.78413 14.3531 3.78413H13.4172V3.06974C13.4506 2.00017 12.9159 2.00017 12.9159 2.00017C12.9159 2.00017 13.2564 2.00012 8.81975 2.00012C4.41237 2.00305 4.3334 2.00305 4.22812 2.06154ZM12.9159 8.60972V14.8349H8.81975H4.35931V8.60972V2.53491H8.81975H12.9159V8.60972ZM15.055 10.0219V16.6901H10.5804H6.63214V15.658V15.2193H9.96619C13.2534 15.2193 13.3032 15.2193 13.4172 15.1608C13.4933 15.1228 13.4506 14.8349 13.4506 14.8349C13.5091 14.7209 13.4506 15.0815 13.4506 10.0219V4.13931L13.9854 4.13931H15.055V10.0219Z" fill="#202223"/>
<line x1="5.6748" y1="4.95874" x2="8.38351" y2="4.95874" stroke="#202223" stroke-width="0.5" stroke-linecap="round"/>
<line x1="8.8833" y1="11.3761" x2="11.592" y2="11.3761" stroke="#202223" stroke-width="0.5" stroke-linecap="round"/>
<line x1="5.6748" y1="6.02832" x2="10.5226" y2="6.02832" stroke="#202223" stroke-width="0.5" stroke-linecap="round"/>
<line x1="5.6748" y1="8.16736" x2="10.5226" y2="8.16736" stroke="#202223" stroke-width="0.5" stroke-linecap="round"/>
<line x1="5.6748" y1="7.0979" x2="10.5226" y2="7.0979" stroke="#202223" stroke-width="0.5" stroke-linecap="round"/>
<line x1="5.6748" y1="9.23694" x2="10.5226" y2="9.23694" stroke="#202223" stroke-width="0.5" stroke-linecap="round"/>
</svg>
