<svg width="24" height="24" viewBox="0 0 24 24" fill="none" xmlns="http://www.w3.org/2000/svg">
<rect width="24" height="24" rx="2" fill="#EDEDF6"/>
<path d="M15.7533 12.6477H17.1071C17.1071 11.4391 16.6485 10.2939 15.9406 9.41864H15.9199C15.3993 8.79336 14.774 8.31474 14.0241 8.0021C14.0034 8.0021 13.9821 7.98143 13.9821 7.98143C13.8567 7.93944 13.7321 7.85611 13.6068 7.81478C13.5648 7.81478 13.5441 7.79412 13.5028 7.79412C13.3988 7.75212 13.2528 7.73145 13.1488 7.71079C13.1068 7.69012 13.0448 7.66879 13.0028 7.66879C12.8775 7.64813 12.7735 7.6268 12.6489 7.60613H12.5235C12.3775 7.58547 12.2109 7.58547 12.0649 7.58547C11.023 7.5648 10.0024 7.87744 9.12781 8.48139C8.77384 8.73137 8.23188 8.64804 8.00257 8.29407C7.75259 7.9401 7.85658 7.44015 8.21122 7.19017C9.33646 6.39823 10.6484 5.9816 12.0029 5.9816C12.0236 5.9816 12.0236 5.96094 12.0236 5.96094C12.0656 5.96094 12.0862 5.9816 12.1069 5.9816C12.2942 5.9816 12.4822 5.9816 12.6489 6.00227C12.7322 6.00227 12.7948 6.02293 12.8782 6.02293C12.9615 6.0436 13.0655 6.0436 13.1701 6.06493C13.2121 6.06493 13.2535 6.08559 13.2955 6.08559C13.3581 6.10626 13.4621 6.14826 13.5454 6.16892C13.6708 6.18959 13.8161 6.23158 13.9414 6.27291C14.0041 6.29358 14.0667 6.31491 14.1081 6.33557C14.2747 6.37757 14.4414 6.43956 14.5874 6.50223C14.6294 6.50223 14.65 6.52289 14.6707 6.52289C15.6293 6.93952 16.4832 7.5648 17.1705 8.39806C17.1705 8.41873 17.1911 8.41873 17.1911 8.44006C17.2951 8.56538 17.3998 8.7107 17.4831 8.83603C17.5038 8.83603 17.5038 8.85669 17.5038 8.87802C18.2537 9.96127 18.7123 11.2318 18.7123 12.6484H20.0249L17.8997 15.8354L15.7533 12.6477ZM4.0249 12.6477L6.15006 9.43931L8.29588 12.6477H6.94199C6.94199 13.8349 7.37929 14.9182 8.0879 15.7934C8.10856 15.8141 8.10856 15.8354 8.12989 15.8561C8.23388 15.9814 8.33854 16.1061 8.44253 16.2101V16.2307C8.77584 16.564 9.17181 16.856 9.58844 17.0847C9.6091 17.0847 9.6091 17.1053 9.6091 17.1053C9.73443 17.168 9.87975 17.2307 10.0051 17.272C10.0257 17.2926 10.0677 17.314 10.0884 17.314C10.1924 17.356 10.297 17.3973 10.4217 17.4393C10.4637 17.46 10.505 17.4813 10.5677 17.4813C10.651 17.5233 10.7763 17.544 10.8803 17.5646C10.943 17.5853 11.0057 17.5853 11.0676 17.6066C11.1716 17.6273 11.2763 17.6486 11.3803 17.6486C11.443 17.6693 11.4843 17.6693 11.5469 17.6693C11.6723 17.6899 11.8389 17.6899 11.9636 17.6899C13.0262 17.7106 14.0467 17.398 14.922 16.7734C15.276 16.544 15.8179 16.648 16.0472 17.0027C16.2972 17.3566 16.1932 17.8566 15.8386 18.1066C14.7133 18.8985 13.4015 19.3151 12.0469 19.3151C11.8176 19.3151 11.5883 19.2945 11.3596 19.2731C11.3176 19.2731 11.2763 19.2525 11.2343 19.2525C11.109 19.2318 11.005 19.2318 10.8803 19.2105C10.8383 19.1898 10.797 19.1898 10.7763 19.1898C10.693 19.1692 10.5677 19.1478 10.4844 19.1272C10.359 19.0852 10.2344 19.0645 10.1091 19.0232C10.0464 19.0025 9.98374 18.9812 9.90041 18.9605C9.77509 18.9185 9.60844 18.8565 9.46312 18.7939C9.42112 18.7939 9.37979 18.7732 9.35912 18.7519C9.19247 18.6685 9.00515 18.5852 8.85917 18.5019C8.8385 18.5019 8.81717 18.4812 8.81717 18.4812C8.25455 18.1892 7.77526 17.8146 7.31729 17.356C7.31729 17.3353 7.29663 17.3353 7.29663 17.314C7.17131 17.1887 7.02599 17.0433 6.90066 16.8973C6.85867 16.8767 6.838 16.814 6.81734 16.772L6.56736 16.4594C6.56736 16.4387 6.54669 16.4387 6.54669 16.4174C5.79675 15.3548 5.33813 14.0636 5.33813 12.647H4.02557L4.0249 12.6477Z" fill="#5556A6"/>
</svg>
