<svg width="20" height="20" viewBox="0 0 20 20" fill="none" xmlns="http://www.w3.org/2000/svg">
<path d="M6.86548 2.02953C6.04852 2.11488 5.25898 2.33437 4.74381 2.62092C4.45421 2.78248 4.11889 3.1239 4.05182 3.319C4.00305 3.45617 4 3.85246 4 7.95559V12.4428L4.0945 12.6288C4.20424 12.8483 4.43592 13.0738 4.71942 13.2324L4.91452 13.3421V13.4823C4.91452 13.717 5.00292 14.1835 5.10047 14.4761C5.80465 16.5825 8.18544 17.5915 10.2035 16.6405C10.3224 16.5856 10.5266 16.4697 10.6577 16.3844L10.8985 16.2259L11.2826 16.3051C11.8831 16.4271 12.2215 16.4575 12.9623 16.4575C13.6878 16.4575 14.0292 16.4271 14.6267 16.3082C15.7515 16.0826 16.5655 15.604 16.7118 15.0797C16.7301 15.0065 16.7423 14.1347 16.7423 12.6471V10.3272L16.6478 10.1413C16.1844 9.21153 14.0048 8.69026 11.7521 8.96461L11.5935 8.98595L11.5844 6.19972L11.5752 3.4135L11.4929 3.25803C11.3801 3.04159 11.2796 2.93185 11.0601 2.77638C10.5357 2.40143 9.77365 2.15756 8.78597 2.04477C8.33786 1.99295 7.31055 1.9838 6.86548 2.02953ZM9.07557 2.48069C10.2644 2.69408 11.0479 3.08427 11.1668 3.52934C11.2155 3.71224 11.0936 3.93782 10.8467 4.12072C9.61513 5.03829 6.38994 5.11145 4.92976 4.2579C4.17985 3.81588 4.22558 3.34948 5.05779 2.91661C5.47847 2.70017 6.08205 2.52946 6.69782 2.4563C6.85024 2.43801 7.00571 2.41667 7.04839 2.41058C7.09107 2.40143 7.48126 2.40143 7.91718 2.40753C8.56649 2.41362 8.77682 2.42582 9.07557 2.48069ZM11.1607 5.17242C11.0906 5.44067 10.6363 5.76075 10.0419 5.96195C9.74926 6.06254 9.25542 6.17534 8.8317 6.2363C8.29823 6.31556 6.90816 6.28813 6.40213 6.18448C6.30458 6.16619 6.16436 6.28203 6.16436 6.37958C6.16436 6.59906 6.5454 6.66917 7.73428 6.67222C8.22507 6.67527 8.64879 6.66003 8.84694 6.63564C9.76755 6.5198 10.6302 6.2363 11.054 5.91317L11.2003 5.80343L11.1881 6.21192C11.179 6.6143 11.1759 6.6265 11.0875 6.75758C10.7674 7.21179 9.79803 7.57759 8.59087 7.69953C8.13361 7.74526 6.99047 7.71782 6.58503 7.6538C5.69186 7.50748 4.95719 7.23313 4.62797 6.91609C4.41153 6.7088 4.39324 6.65393 4.40239 6.22106L4.41153 5.84001L4.59139 5.96195C4.8566 6.1418 5.03645 6.10827 5.03645 5.88269C5.03645 5.79124 5.01816 5.7638 4.85965 5.66016C4.62797 5.49859 4.43592 5.28825 4.41153 5.16022C4.40239 5.10535 4.39629 4.9133 4.40239 4.73345L4.41153 4.40422L4.54871 4.49872C5.02731 4.82185 5.76197 5.06267 6.64295 5.18461C7.23434 5.26692 8.43845 5.26082 9.02374 5.16937C9.86815 5.04134 10.5357 4.82185 10.9656 4.53225L11.179 4.38898L11.1881 4.71821C11.1911 4.89806 11.182 5.1023 11.1607 5.17242ZM4.97853 7.61722C5.66137 7.93121 6.46919 8.08667 7.53613 8.11411C8.50857 8.1385 9.14568 8.07143 9.91082 7.86109C10.3193 7.7483 10.7766 7.54711 11.0143 7.3764C11.0966 7.31848 11.1698 7.26971 11.179 7.26971C11.2094 7.26971 11.1942 7.92816 11.1607 8.04705C11.1149 8.21166 10.8436 8.47382 10.5693 8.61709C10.112 8.85487 9.3865 9.04997 8.67928 9.12922C8.28908 9.1719 7.25873 9.1719 6.90816 9.12922C5.66442 8.9768 4.7621 8.62929 4.48469 8.18727C4.39934 8.05619 4.39629 8.0379 4.39629 7.6599V7.26971L4.57615 7.39164C4.67369 7.45871 4.8566 7.56235 4.97853 7.61722ZM4.945 9.03472C5.42055 9.2664 6.1674 9.45235 6.90511 9.52856C7.38371 9.57429 8.66403 9.54685 9.07557 9.48284C9.88034 9.35176 10.5236 9.13837 10.9412 8.86401C11.0387 8.8 11.1363 8.73598 11.1576 8.72379C11.1851 8.7055 11.1942 8.74208 11.1942 8.87926V9.05911L10.8833 9.14142C10.4809 9.24811 10.0663 9.42187 9.80108 9.59258L9.59074 9.72976L9.31944 9.67184C8.94449 9.59258 8.10313 9.61087 7.72818 9.70537C7.25263 9.82426 6.75879 10.059 6.38079 10.3425L6.21923 10.4644L6.03327 10.4217C5.26813 10.248 4.61882 9.90351 4.45726 9.58343C4.40544 9.48588 4.39629 9.40358 4.39629 9.0835V8.70245L4.54261 8.80609C4.62187 8.86401 4.80173 8.96766 4.945 9.03472ZM14.0749 9.3548C15.0626 9.50418 15.7637 9.76634 16.1234 10.1199C16.3338 10.3303 16.3795 10.4522 16.3185 10.6565C16.2179 10.9948 15.5077 11.3911 14.6694 11.5801C14.078 11.7112 13.8158 11.7356 12.947 11.7356C12.4776 11.7356 12.0569 11.7264 12.0142 11.7143C11.9624 11.699 11.9197 11.6533 11.8923 11.5923C11.8069 11.385 11.4807 10.943 11.2247 10.6839C10.9503 10.4126 10.5876 10.1474 10.2736 9.99497C10.176 9.94619 10.0968 9.90047 10.0968 9.88827C10.0968 9.85779 10.5479 9.65964 10.8131 9.57734C11.121 9.47979 11.5844 9.38834 11.9563 9.34566C12.1148 9.32737 12.2947 9.30603 12.3526 9.29993C12.5812 9.2725 13.7853 9.31213 14.0749 9.3548ZM8.42016 10.1474C8.42016 10.312 8.47808 10.3791 8.61831 10.3791C8.74634 10.3791 8.81645 10.2907 8.81645 10.123V10.0041L8.99936 10.0224C9.54807 10.0803 10.1608 10.3333 10.6211 10.69L10.7918 10.8241L10.7034 10.9217C10.4778 11.1747 10.7613 11.446 10.9961 11.2021L11.0814 11.1137L11.2186 11.2875C11.5783 11.7508 11.8283 12.3544 11.8831 12.894L11.9014 13.083L11.7551 13.1013C11.5935 13.1196 11.5295 13.1775 11.5295 13.3086C11.5295 13.4335 11.6027 13.4884 11.7642 13.4884H11.9045L11.8862 13.6835C11.8587 13.9884 11.7521 14.3603 11.6057 14.6712C11.4625 14.973 11.2399 15.3266 11.1332 15.4241C11.0723 15.479 11.0692 15.479 10.9869 15.3998C10.7522 15.1742 10.4839 15.4333 10.6943 15.6802C10.7918 15.796 10.7857 15.8052 10.4839 16.0125C10.0785 16.2899 9.64257 16.4728 9.1914 16.552C8.8134 16.6191 8.81645 16.6191 8.81645 16.4789C8.81645 16.3204 8.73415 16.2228 8.60307 16.2228C8.47503 16.2228 8.42016 16.296 8.42016 16.4697V16.6069L8.23116 16.5856C7.64282 16.5185 6.98437 16.2381 6.51492 15.854L6.42347 15.7808L6.51187 15.6863C6.60942 15.5857 6.63076 15.4455 6.56065 15.3662C6.49968 15.287 6.31068 15.3053 6.22532 15.3937C6.18569 15.4363 6.14302 15.4699 6.13082 15.4699C6.09729 15.4699 5.81684 15.0766 5.69795 14.8602C5.55468 14.595 5.4114 14.1804 5.35653 13.8603C5.28947 13.4762 5.28642 13.4884 5.46018 13.4884C5.58211 13.4884 5.62174 13.4762 5.65832 13.4214C5.76502 13.2689 5.67357 13.1257 5.45103 13.1013L5.30776 13.083L5.32605 12.9275C5.39921 12.3331 5.68576 11.6533 6.03937 11.2357L6.12777 11.129L6.22532 11.2113C6.48139 11.4277 6.7466 11.1686 6.51492 10.9278C6.44481 10.8546 6.43566 10.8302 6.46615 10.7936C6.52407 10.7266 6.9234 10.4553 7.10936 10.3638C7.47516 10.1779 8.00863 10.0224 8.29213 10.0163L8.42016 10.0133V10.1474ZM4.92976 10.4644C5.16144 10.5803 5.71929 10.7754 5.81379 10.7754C5.83818 10.7754 5.85952 10.7845 5.85952 10.7936C5.85952 10.8028 5.78331 10.9064 5.69186 11.0253C5.59736 11.1442 5.47237 11.3271 5.41445 11.4338C5.35348 11.5405 5.29861 11.6289 5.28947 11.6289C5.23155 11.6289 4.76819 11.3576 4.6554 11.257C4.42982 11.0589 4.39629 10.9644 4.39629 10.5162V10.1352L4.54261 10.2388C4.62187 10.2937 4.79563 10.3974 4.92976 10.4644ZM16.2698 12.1929C16.0106 12.6379 15.0474 13.0159 13.8189 13.1531C13.3982 13.1988 12.3495 13.1958 12.316 13.147C12.3038 13.1257 12.2916 13.0464 12.2916 12.9702C12.2916 12.8574 12.2276 12.5129 12.1514 12.1929C12.1361 12.1319 12.1514 12.1319 12.9379 12.1319C13.7853 12.1319 14.0993 12.1044 14.6846 11.9795C15.3095 11.8453 15.8399 11.6411 16.1783 11.4064L16.3307 11.3027L16.3399 11.6807C16.346 12.0404 16.3429 12.0709 16.2698 12.1929ZM4.5731 11.7051C4.6554 11.763 4.81392 11.8545 4.92671 11.9063C5.10656 11.9886 5.13095 12.0099 5.11266 12.0679C5.03645 12.3331 4.945 12.7172 4.945 12.7903C4.945 12.897 4.92061 12.9001 4.80477 12.8117C4.44506 12.5434 4.39629 12.4398 4.39629 11.9642C4.39629 11.763 4.40239 11.5984 4.41153 11.5984C4.42068 11.5984 4.49384 11.6472 4.5731 11.7051ZM16.2606 13.6378C15.9893 14.0768 15.0748 14.4395 13.8615 14.5889C13.5323 14.6285 12.377 14.6407 12.1971 14.6072L12.0843 14.5858L12.1575 14.3542C12.1971 14.2292 12.2459 14.0036 12.2672 13.8573L12.3038 13.586L13.1147 13.5707C13.9591 13.5555 14.2578 13.5219 14.8462 13.3817C15.4162 13.2445 15.9131 13.0434 16.2088 12.8269L16.3307 12.7355L16.3399 13.1196C16.349 13.4915 16.346 13.5037 16.2606 13.6378ZM16.2881 15.04C16.0655 15.4729 15.0961 15.8784 13.9408 16.0186C13.2275 16.1039 12.3312 16.0856 11.6576 15.9729C11.2033 15.8936 11.2277 15.9149 11.3832 15.7503C11.5417 15.5796 11.7033 15.3571 11.8191 15.1498C11.8679 15.0644 11.9075 14.9943 11.9136 14.9882C11.9167 14.9821 12.1422 14.9943 12.4166 15.0126C13.8859 15.1071 15.4833 14.7931 16.1936 14.2688L16.3307 14.1682L16.3399 14.5432C16.346 14.8693 16.3399 14.9364 16.2881 15.04Z" fill="#202223"/>
<path d="M6.89894 2.792C6.54228 2.83163 5.88993 2.96575 5.80762 3.02063C5.71312 3.08159 5.68873 3.19743 5.7497 3.29193C5.81372 3.38948 5.86859 3.38948 6.3167 3.29498C6.75262 3.20048 7.17025 3.15475 7.5513 3.15475C7.81955 3.15475 7.85004 3.14866 7.9171 3.07854C8.00551 2.99319 8.0116 2.92308 7.94454 2.82553C7.90186 2.76151 7.87747 2.75846 7.52691 2.76151C7.32267 2.76456 7.03917 2.7798 6.89894 2.792Z" fill="#202223"/>
<path d="M5.01527 3.353C4.76225 3.52371 4.69823 3.67003 4.82322 3.79502C4.91162 3.88342 5.01222 3.87123 5.15854 3.75539C5.42375 3.55115 5.47253 3.49628 5.44814 3.40482C5.40546 3.21887 5.2439 3.19753 5.01527 3.353Z" fill="#202223"/>
<path d="M8.25241 10.626C7.10926 10.7784 6.1917 11.638 5.96307 12.769C5.88686 13.1409 5.91734 13.7567 6.02709 14.0981C6.31668 14.9913 6.96599 15.6314 7.85917 15.8997C8.01159 15.9454 8.19144 15.9698 8.50238 15.9789C8.87733 15.9942 8.97793 15.9881 9.21875 15.9302C9.37422 15.8936 9.59065 15.8204 9.70039 15.7656C9.88025 15.6772 9.89854 15.6589 9.90768 15.5674C9.92293 15.4272 9.84062 15.3388 9.71564 15.3571C9.66686 15.3662 9.50225 15.418 9.34983 15.4729C9.10901 15.5583 9.02975 15.5735 8.70052 15.5857C8.24326 15.6009 8.00854 15.5552 7.61225 15.3632C7.11841 15.1224 6.78309 14.7901 6.54531 14.2962C6.1856 13.5524 6.24352 12.7111 6.70078 12.0191C6.8593 11.7813 7.18243 11.4765 7.42934 11.3271C8.41093 10.7357 9.6821 10.9735 10.4107 11.8819C10.7399 12.2904 10.8984 12.7477 10.8984 13.3055C10.8984 13.6927 10.8527 13.9152 10.7033 14.2444C10.6545 14.3542 10.6149 14.4669 10.6149 14.4974C10.6149 14.5828 10.7247 14.6773 10.8222 14.6773C10.935 14.6773 10.9929 14.6102 11.0905 14.3724C11.5081 13.3421 11.313 12.2386 10.5753 11.4551C10.2003 11.0589 9.79185 10.8211 9.26143 10.6839C8.98402 10.6138 8.53591 10.5864 8.25241 10.626Z" fill="#202223"/>
<path d="M7.54204 11.8485C7.49021 11.9003 7.49631 12.1015 7.55118 12.1472C7.57557 12.1686 7.74323 12.1899 7.96881 12.1991C8.40168 12.2204 8.52362 12.2631 8.6486 12.446L8.72481 12.5588L8.13952 12.574L7.55423 12.5892L7.5085 12.6716C7.45059 12.7721 7.49936 12.8971 7.6152 12.9398C7.65788 12.9581 7.91699 12.9703 8.19439 12.9703C8.54191 12.9703 8.69433 12.9794 8.69433 13.0038C8.69433 13.0709 8.46265 13.269 8.34376 13.3026C8.2767 13.3209 8.0755 13.3361 7.8987 13.3361C7.62434 13.3361 7.56947 13.3452 7.5268 13.391C7.40486 13.5251 7.43839 13.5708 8.14257 14.2537C8.51142 14.6103 8.8437 14.9152 8.88028 14.9274C8.91991 14.9426 8.97478 14.9365 9.0266 14.9121C9.08757 14.8847 9.10891 14.8511 9.11501 14.7566C9.12415 14.6439 9.11501 14.6317 8.6608 14.1927L8.19439 13.7446L8.39863 13.6928C8.737 13.6105 9.01136 13.3727 9.09671 13.0861L9.13025 12.9703H9.34059C9.50825 12.9703 9.56007 12.9581 9.60884 12.9093C9.69115 12.827 9.68505 12.7386 9.5936 12.6502C9.52959 12.5831 9.49301 12.574 9.31925 12.574C9.16073 12.574 9.1211 12.5649 9.1211 12.5283C9.1211 12.5008 9.09367 12.4216 9.06013 12.3545C9.0266 12.2844 8.99917 12.2234 8.99917 12.2173C8.99917 12.2112 9.12415 12.2082 9.27352 12.2082C9.57836 12.2082 9.66981 12.1625 9.66981 12.0101C9.66981 11.9674 9.64238 11.9064 9.60884 11.8729C9.55092 11.815 9.50825 11.8119 8.56325 11.8119C7.83773 11.8119 7.56947 11.8211 7.54204 11.8485Z" fill="#202223"/>
</svg>
