<svg width="20" height="20" viewBox="0 0 20 20" fill="none" xmlns="http://www.w3.org/2000/svg">
<path d="M10 12.5C11.3808 12.5 12.5 11.3808 12.5 10C12.5 8.61926 11.3808 7.5 10 7.5C8.61926 7.5 7.5 8.61926 7.5 10C7.5 11.3808 8.61926 12.5 10 12.5Z" stroke="#5556A6" stroke-width="1.25001" stroke-miterlimit="10" stroke-linecap="round" stroke-linejoin="round"/>
<path d="M1.66406 10.7319V9.26527C1.66406 8.39859 2.3724 7.68195 3.24741 7.68195C4.75576 7.68195 5.37243 6.61527 4.61409 5.30693C4.18075 4.55692 4.43909 3.58191 5.19743 3.14857L6.63911 2.32357C7.29745 1.9319 8.14746 2.16523 8.53913 2.82357L8.6308 2.98191C9.3808 4.29025 10.6141 4.29025 11.3725 2.98191L11.4642 2.82357C11.8558 2.16523 12.7058 1.9319 13.3642 2.32357L14.8059 3.14857C15.5642 3.58191 15.8225 4.55692 15.3892 5.30693C14.6309 6.61527 15.2475 7.68195 16.7559 7.68195C17.6226 7.68195 18.3392 8.39026 18.3392 9.26527V10.7319C18.3392 11.5986 17.6309 12.3153 16.7559 12.3153C15.2475 12.3153 14.6309 13.382 15.3892 14.6903C15.8225 15.4487 15.5642 16.4153 14.8059 16.8487L13.3642 17.6737C12.7058 18.0654 11.8558 17.832 11.4642 17.1737L11.3725 17.0153C10.6225 15.707 9.38914 15.707 8.6308 17.0153L8.53913 17.1737C8.14746 17.832 7.29745 18.0654 6.63911 17.6737L5.19743 16.8487C4.43909 16.4153 4.18075 15.4403 4.61409 14.6903C5.37243 13.382 4.75576 12.3153 3.24741 12.3153C2.3724 12.3153 1.66406 11.5986 1.66406 10.7319Z" stroke="#5556A6" stroke-width="1.25001" stroke-miterlimit="10" stroke-linecap="round" stroke-linejoin="round"/>
</svg>
