<svg width="20" height="20" viewBox="0 0 20 20" fill="none" xmlns="http://www.w3.org/2000/svg">
<path d="M9.57252 3.01817C9.42581 3.05632 9.2439 3.16195 9.12946 3.27638C8.93874 3.46417 8.8918 3.61968 8.80377 4.31507C8.76269 4.6613 8.71281 4.95765 8.69814 4.97819C8.68347 4.99873 8.62479 5.02807 8.5661 5.04568C8.50742 5.06622 8.32257 5.13957 8.15532 5.21293L7.8531 5.3479L7.74454 5.25987C7.23693 4.85789 6.85255 4.57328 6.74106 4.51753C6.56207 4.42657 6.27452 4.40603 6.04859 4.47352C5.88135 4.52046 5.852 4.54687 5.19475 5.20119C4.54043 5.85844 4.51403 5.88778 4.46708 6.05503C4.39959 6.28389 4.42013 6.56851 4.51109 6.74749C4.54924 6.82085 4.73409 7.07612 4.92188 7.31965C5.38841 7.91529 5.35613 7.8478 5.25344 8.05319C5.20356 8.15002 5.12727 8.32901 5.08325 8.44931C5.03924 8.56961 4.98643 8.68404 4.96882 8.70164C4.95122 8.71925 4.65193 8.76913 4.3057 8.81314C3.60737 8.90117 3.45773 8.94811 3.26994 9.1359C3.20833 9.19458 3.12617 9.31195 3.07922 9.39704L3 9.54962V10.4885V11.4275L3.07629 11.5918C3.1203 11.6828 3.20246 11.806 3.26407 11.8676C3.45773 12.0613 3.61617 12.1111 4.28223 12.1933C4.60792 12.2314 4.90427 12.2755 4.93655 12.2901C4.97176 12.3048 5.0187 12.3781 5.05098 12.472C5.08032 12.5601 5.15954 12.7449 5.22409 12.8858C5.30332 13.0647 5.33266 13.1557 5.31212 13.1792C5.29745 13.1997 5.12433 13.4227 4.93068 13.6721C4.73702 13.9215 4.54924 14.1856 4.51109 14.2589C4.42013 14.4379 4.39959 14.7225 4.46708 14.9514C4.51403 15.1187 4.54043 15.148 5.19475 15.8052C5.852 16.4596 5.88135 16.486 6.04859 16.5329C6.27452 16.6004 6.56207 16.5799 6.74106 16.4889C6.85255 16.4332 7.23693 16.1485 7.74454 15.7466L7.8531 15.6585L8.15532 15.7935C8.32257 15.8669 8.50742 15.9402 8.5661 15.9608C8.62479 15.9784 8.68347 16.0077 8.69814 16.0282C8.71281 16.0488 8.76269 16.3451 8.80377 16.6914C8.8918 17.3897 8.93874 17.5423 9.1324 17.7359C9.19401 17.7975 9.31725 17.8797 9.40821 17.9237L9.57252 18H10.4968H11.421L11.5854 17.9237C11.6763 17.8797 11.7995 17.7975 11.8612 17.7359C12.0578 17.5393 12.1047 17.3838 12.1898 16.6884C12.2309 16.3451 12.2808 16.0488 12.2984 16.0312C12.316 16.0136 12.4304 15.9608 12.5507 15.9167C12.671 15.8727 12.85 15.7964 12.9468 15.7466C13.1522 15.6439 13.0847 15.6116 13.6803 16.0781C13.9239 16.2659 14.1792 16.4508 14.2525 16.4889C14.4315 16.5799 14.7161 16.6004 14.945 16.5329C15.1122 16.486 15.1416 16.4596 15.7988 15.8052C16.4531 15.148 16.4795 15.1187 16.5265 14.9514C16.594 14.7225 16.5734 14.4379 16.4825 14.2589C16.4297 14.1562 16.1538 13.7836 15.6814 13.1821C15.6638 13.1557 15.6961 13.0501 15.7871 12.8447C15.8604 12.6774 15.9338 12.4926 15.9543 12.4339C15.9719 12.3752 16.0013 12.3165 16.0218 12.3019C16.0423 12.2872 16.3387 12.2373 16.6849 12.1962C17.3833 12.1082 17.5358 12.0613 17.7295 11.8676C17.7911 11.806 17.8733 11.6828 17.9173 11.5918L17.9936 11.4275V10.5032V9.57896L17.9173 9.41464C17.8733 9.32369 17.7911 9.20045 17.7295 9.13883C17.5358 8.94518 17.3803 8.89823 16.6761 8.80434C16.327 8.76033 16.0306 8.71045 16.0159 8.69578C16.0013 8.6811 15.9543 8.56961 15.9103 8.44931C15.8663 8.32901 15.79 8.15002 15.7401 8.05319C15.6374 7.8478 15.6052 7.91529 16.0717 7.31965C16.2595 7.07612 16.4443 6.82085 16.4825 6.74749C16.5734 6.56851 16.594 6.28389 16.5265 6.05503C16.4795 5.88778 16.4531 5.85844 15.7988 5.20119C15.1416 4.54687 15.1122 4.52046 14.945 4.47352C14.7161 4.40603 14.4315 4.42657 14.2525 4.51753C14.1792 4.55567 13.9239 4.74053 13.6803 4.92831C13.0847 5.39484 13.1522 5.36257 12.9468 5.25987C12.85 5.20999 12.671 5.1337 12.5507 5.08969C12.4304 5.04568 12.316 4.99286 12.2984 4.97526C12.2808 4.95765 12.2309 4.6613 12.1898 4.31507C12.1018 3.61674 12.0548 3.4671 11.8612 3.27051C11.7995 3.20889 11.6763 3.12674 11.5854 3.08272L11.421 3.00644L10.5408 3.00057C10.0567 2.99763 9.6224 3.00644 9.57252 3.01817ZM11.3154 3.64608C11.4739 3.72531 11.4944 3.78986 11.5971 4.59088C11.6704 5.17185 11.7057 5.36257 11.7467 5.41832C11.7878 5.47113 11.9052 5.52688 12.1575 5.61784C12.3512 5.68533 12.6534 5.81149 12.8294 5.89659C13.1082 6.03156 13.1581 6.04623 13.2373 6.02275C13.2872 6.00808 13.5982 5.78509 13.9298 5.52688C14.7366 4.89897 14.6075 4.88723 15.3587 5.64131C16.1128 6.39246 16.104 6.25749 15.4643 7.08199C15.2032 7.41942 14.9802 7.7363 14.9684 7.78032C14.9567 7.8478 14.986 7.93583 15.1034 8.17936C15.1885 8.34954 15.3088 8.63416 15.3734 8.81021C15.5113 9.19752 15.5259 9.22979 15.6081 9.2738C15.6433 9.29434 16.0101 9.35303 16.4209 9.40584C17.2101 9.5056 17.2747 9.52614 17.3539 9.68459C17.4067 9.78435 17.4067 11.2221 17.3539 11.3218C17.2747 11.4803 17.2101 11.5008 16.4179 11.6006C16.0071 11.6563 15.6433 11.715 15.6081 11.7326C15.5259 11.7766 15.5083 11.8089 15.3704 12.1992C15.3088 12.3781 15.1856 12.6628 15.1034 12.8359C14.9655 13.1146 14.9508 13.1586 14.9772 13.2437C14.9919 13.2936 15.2149 13.6046 15.4731 13.9362C16.101 14.7431 16.1128 14.614 15.3587 15.3651C14.6075 16.1192 14.7425 16.1104 13.918 15.4708C13.5806 15.2096 13.2637 14.9866 13.2197 14.9749C13.1522 14.9631 13.0642 14.9925 12.8206 15.1099C12.6505 15.1949 12.3629 15.3152 12.1839 15.3798C12.0079 15.4443 11.8318 15.5148 11.7966 15.5382C11.7057 15.5969 11.6822 15.7055 11.5854 16.486C11.4944 17.2107 11.4739 17.2811 11.3154 17.3604C11.2157 17.4132 9.77791 17.4132 9.67815 17.3604C9.51971 17.2782 9.49917 17.2166 9.39941 16.4185C9.32312 15.8287 9.29084 15.6468 9.24683 15.5881C9.20575 15.5353 9.09132 15.4796 8.83898 15.3886C8.64239 15.3211 8.34311 15.1949 8.16999 15.1128C7.92352 14.9925 7.83843 14.9631 7.77095 14.9778C7.724 14.9866 7.43058 15.1949 7.11956 15.4355C6.80561 15.6791 6.51219 15.8991 6.46818 15.9226C6.29506 16.0106 6.23931 15.9725 5.62607 15.3593C4.88373 14.614 4.89253 14.746 5.52925 13.9245C5.79039 13.587 6.01338 13.2731 6.02219 13.2291C6.03686 13.1674 6.00458 13.0706 5.89015 12.8359C5.80799 12.6628 5.68476 12.3752 5.62314 12.1962C5.55859 12.0143 5.48523 11.8383 5.46176 11.8031C5.40308 11.7121 5.29451 11.6886 4.51403 11.5918C3.78929 11.5008 3.71887 11.4803 3.63965 11.3218C3.58683 11.2221 3.58683 9.78435 3.63965 9.68459C3.71887 9.52614 3.78929 9.5056 4.51403 9.41464C5.29451 9.31782 5.40308 9.29434 5.46176 9.20339C5.48523 9.16817 5.55565 8.99213 5.62021 8.81608C5.68476 8.63709 5.80506 8.34954 5.89015 8.17643C6.02805 7.89475 6.04273 7.8478 6.01632 7.76565C6.00165 7.71283 5.77865 7.40181 5.52044 7.07025C4.89253 6.26336 4.8808 6.39246 5.63488 5.64131C6.38602 4.88723 6.25692 4.89897 7.06381 5.52688C7.39537 5.78509 7.70639 6.00808 7.75628 6.02275C7.83843 6.04916 7.88831 6.03449 8.18466 5.88778C8.36658 5.79976 8.65413 5.67946 8.82431 5.61784C8.99449 5.55916 9.16174 5.49167 9.19695 5.47113C9.28791 5.40951 9.31138 5.30095 9.40821 4.52046C9.49917 3.79573 9.51971 3.72531 9.67815 3.64608C9.72803 3.61968 9.95983 3.60794 10.4968 3.60794C11.0337 3.60794 11.2655 3.61968 11.3154 3.64608Z" fill="#202223"/>
<path d="M10.1448 7.39251C9.06208 7.52748 8.14075 8.19941 7.67129 9.19115C7.10793 10.3854 7.372 11.8143 8.32561 12.7386C9.26747 13.6481 10.6495 13.8887 11.8085 13.3371C12.5068 13.0085 13.0085 12.5068 13.3342 11.8143C14.0942 10.2064 13.3401 8.29623 11.6676 7.60084C11.2363 7.42185 10.5996 7.33383 10.1448 7.39251ZM11.0016 8.04976C11.65 8.18767 12.2104 8.56911 12.5831 9.12367C12.8677 9.54912 12.9968 9.98631 12.9968 10.5145C12.9939 11.3624 12.5948 12.1018 11.8789 12.583C11.606 12.7679 11.2422 12.9146 10.9253 12.9704C10.8108 12.9909 10.582 12.9997 10.3737 12.9909C9.94526 12.9733 9.59903 12.8706 9.22639 12.6505C8.94765 12.4862 8.56914 12.1224 8.39603 11.8524C8.25225 11.6324 8.10848 11.2773 8.0498 11.0015C7.99698 10.7551 7.99698 10.2504 8.0498 10.0039C8.25812 9.02684 9.0122 8.26689 9.98928 8.0527C10.224 7.99988 10.7639 7.99988 11.0016 8.04976Z" fill="#202223"/>
</svg>
