<svg width="15" height="11" viewBox="0 0 15 11" fill="none" xmlns="http://www.w3.org/2000/svg">
<path d="M0.599609 1.40118H7.34961" stroke="#202223"/>
<path d="M0.599609 4.10266H5.99961" stroke="#202223"/>
<path d="M0.599609 6.80078H5.09961" stroke="#202223"/>
<path d="M0.599609 9.50195H3.29961" stroke="#202223"/>
<path d="M10.5966 9.85551C10.7919 10.0508 11.1085 10.0508 11.3037 9.85551L14.4857 6.67353C14.681 6.47826 14.681 6.16168 14.4857 5.96642C14.2905 5.77116 13.9739 5.77116 13.7786 5.96642L10.9502 8.79485L8.12177 5.96642C7.92651 5.77116 7.60992 5.77116 7.41466 5.96642C7.2194 6.16168 7.2194 6.47826 7.41466 6.67353L10.5966 9.85551ZM10.4502 0.501953L10.4502 9.50195L11.4502 9.50195L11.4502 0.501953L10.4502 0.501953Z" fill="#202223"/>
</svg>
